<svg width="20" height="21" viewBox="0 0 20 21" fill="none" xmlns="http://www.w3.org/2000/svg">
<path d="M1.59999 0.200012C1.28173 0.200012 0.976509 0.32644 0.751466 0.551484C0.526422 0.776528 0.399994 1.08175 0.399994 1.40001C0.399994 1.71827 0.526422 2.0235 0.751466 2.24854C0.976509 2.47358 1.28173 2.60001 1.59999 2.60001H3.06399L3.42999 4.06641C3.43363 4.0833 3.43763 4.1001 3.44199 4.11681L5.07159 10.6328L3.99999 11.7032C2.48799 13.2152 3.55839 15.8 5.69679 15.8H16C16.3183 15.8 16.6235 15.6736 16.8485 15.4485C17.0736 15.2235 17.2 14.9183 17.2 14.6C17.2 14.2817 17.0736 13.9765 16.8485 13.7515C16.6235 13.5264 16.3183 13.4 16 13.4H5.69679L6.89679 12.2H14.8C15.0228 12.1999 15.2411 12.1378 15.4306 12.0205C15.6201 11.9033 15.7732 11.7357 15.8728 11.5364L19.4728 4.33641C19.5642 4.15351 19.6073 3.95028 19.5981 3.74602C19.5889 3.54176 19.5277 3.34323 19.4202 3.16928C19.3128 2.99534 19.1626 2.85173 18.9841 2.7521C18.8055 2.65247 18.6045 2.60012 18.4 2.60001H5.53599L5.16399 1.10841C5.09899 0.848916 4.94914 0.618582 4.73824 0.453999C4.52735 0.289415 4.26751 0.200019 3.99999 0.200012H1.59999ZM17.2 18.8C17.2 19.2774 17.0104 19.7352 16.6728 20.0728C16.3352 20.4104 15.8774 20.6 15.4 20.6C14.9226 20.6 14.4648 20.4104 14.1272 20.0728C13.7896 19.7352 13.6 19.2774 13.6 18.8C13.6 18.3226 13.7896 17.8648 14.1272 17.5272C14.4648 17.1897 14.9226 17 15.4 17C15.8774 17 16.3352 17.1897 16.6728 17.5272C17.0104 17.8648 17.2 18.3226 17.2 18.8ZM5.79999 20.6C6.27738 20.6 6.73522 20.4104 7.07279 20.0728C7.41035 19.7352 7.59999 19.2774 7.59999 18.8C7.59999 18.3226 7.41035 17.8648 7.07279 17.5272C6.73522 17.1897 6.27738 17 5.79999 17C5.3226 17 4.86477 17.1897 4.5272 17.5272C4.18964 17.8648 3.99999 18.3226 3.99999 18.8C3.99999 19.2774 4.18964 19.7352 4.5272 20.0728C4.86477 20.4104 5.3226 20.6 5.79999 20.6Z" fill="#07121D"/>
</svg>
