<svg width="20" height="20" viewBox="0 0 20 20" fill="none" xmlns="http://www.w3.org/2000/svg">
<path fill-rule="evenodd" clip-rule="evenodd" d="M10 19.6C12.5461 19.6 14.9879 18.5886 16.7882 16.7882C18.5886 14.9879 19.6 12.5461 19.6 10C19.6 7.45395 18.5886 5.01215 16.7882 3.2118C14.9879 1.41145 12.5461 0.400024 10 0.400024C7.45392 0.400024 5.01213 1.41145 3.21178 3.2118C1.41143 5.01215 0.400002 7.45395 0.400002 10C0.400002 12.5461 1.41143 14.9879 3.21178 16.7882C5.01213 18.5886 7.45392 19.6 10 19.6ZM11.2 5.20002C11.2 4.88176 11.0736 4.57654 10.8485 4.3515C10.6235 4.12645 10.3183 4.00002 10 4.00002C9.68174 4.00002 9.37652 4.12645 9.15147 4.3515C8.92643 4.57654 8.8 4.88176 8.8 5.20002V10C8.80007 10.3183 8.92654 10.6234 9.1516 10.8484L12.5452 14.2432C12.6567 14.3547 12.7891 14.4432 12.9347 14.5035C13.0804 14.5638 13.2365 14.5949 13.3942 14.5949C13.5519 14.5949 13.708 14.5638 13.8537 14.5035C13.9993 14.4432 14.1317 14.3547 14.2432 14.2432C14.3547 14.1317 14.4431 13.9994 14.5035 13.8537C14.5638 13.708 14.5949 13.5519 14.5949 13.3942C14.5949 13.2365 14.5638 13.0804 14.5035 12.9347C14.4431 12.7891 14.3547 12.6567 14.2432 12.5452L11.2 9.50322V5.20002Z" fill="#08090A"/>
</svg>
