<svg width="24" height="24" viewBox="0 0 24 24" fill="none" xmlns="http://www.w3.org/2000/svg">
<path d="M2 19.0714C2 18.69 2.1173 18.3171 2.33706 18C2.55682 17.6828 2.86918 17.4356 3.23463 17.2897C3.60009 17.1437 4.00222 17.1055 4.39018 17.1799C4.77814 17.2543 5.13451 17.438 5.41421 17.7077C5.69392 17.9774 5.8844 18.3211 5.96157 18.6952C6.03874 19.0693 5.99913 19.4571 5.84776 19.8095C5.69638 20.1619 5.44004 20.4631 5.11114 20.675C4.78224 20.8869 4.39556 21 4 21C3.46957 21 2.96086 20.7968 2.58579 20.4351C2.21071 20.0735 2 19.5829 2 19.0714ZM4 6.85714C4.39556 6.85714 4.78224 6.74404 5.11114 6.53212C5.44004 6.32021 5.69638 6.019 5.84776 5.6666C5.99913 5.3142 6.03874 4.92643 5.96157 4.55233C5.8844 4.17822 5.69392 3.83458 5.41421 3.56487C5.13451 3.29515 4.77814 3.11147 4.39018 3.03706C4.00222 2.96264 3.60009 3.00084 3.23463 3.1468C2.86918 3.29277 2.55682 3.53996 2.33706 3.85712C2.1173 4.17427 2 4.54714 2 4.92857C2 5.44006 2.21071 5.9306 2.58579 6.29228C2.96086 6.65396 3.46957 6.85714 4 6.85714ZM4 13.9286C4.39556 13.9286 4.78224 13.8155 5.11114 13.6035C5.44004 13.3916 5.69638 13.0904 5.84776 12.738C5.99913 12.3856 6.03874 11.9979 5.96157 11.6238C5.8844 11.2496 5.69392 10.906 5.41421 10.6363C5.13451 10.3666 4.77814 10.1829 4.39018 10.1085C4.00222 10.0341 3.60009 10.0723 3.23463 10.2182C2.86918 10.3642 2.55682 10.6114 2.33706 10.9285C2.1173 11.2457 2 11.6186 2 12C2 12.5115 2.21071 13.002 2.58579 13.3637C2.96086 13.7254 3.46957 13.9286 4 13.9286ZM10.6667 6.21429H20.6667C21.0203 6.21429 21.3594 6.07883 21.6095 5.83771C21.8595 5.59659 22 5.26956 22 4.92857C22 4.58758 21.8595 4.26055 21.6095 4.01944C21.3594 3.77832 21.0203 3.64286 20.6667 3.64286H10.6667C10.313 3.64286 9.97391 3.77832 9.72386 4.01944C9.47381 4.26055 9.33333 4.58758 9.33333 4.92857C9.33333 5.26956 9.47381 5.59659 9.72386 5.83771C9.97391 6.07883 10.313 6.21429 10.6667 6.21429ZM10.6667 13.2857H20.6667C21.0203 13.2857 21.3594 13.1503 21.6095 12.9091C21.8595 12.668 22 12.341 22 12C22 11.659 21.8595 11.332 21.6095 11.0909C21.3594 10.8497 21.0203 10.7143 20.6667 10.7143H10.6667C10.313 10.7143 9.97391 10.8497 9.72386 11.0909C9.47381 11.332 9.33333 11.659 9.33333 12C9.33333 12.341 9.47381 12.668 9.72386 12.9091C9.97391 13.1503 10.313 13.2857 10.6667 13.2857ZM10.6667 20.3571H20.6667C21.0203 20.3571 21.3594 20.2217 21.6095 19.9806C21.8595 19.7394 22 19.4124 22 19.0714C22 18.7304 21.8595 18.4034 21.6095 18.1623C21.3594 17.9212 21.0203 17.7857 20.6667 17.7857H10.6667C10.313 17.7857 9.97391 17.9212 9.72386 18.1623C9.47381 18.4034 9.33333 18.7304 9.33333 19.0714C9.33333 19.4124 9.47381 19.7394 9.72386 19.9806C9.97391 20.2217 10.313 20.3571 10.6667 20.3571Z" fill="#08090A"/>
</svg>
