<svg width="24" height="24" viewBox="0 0 24 24" fill="none" xmlns="http://www.w3.org/2000/svg">
<circle cx="12" cy="12" r="12" fill="#EBEDEF"/>
<path fill-rule="evenodd" clip-rule="evenodd" d="M12 7.33333C12.3682 7.33333 12.6666 7.63181 12.6666 8V11.3333H16C16.3682 11.3333 16.6666 11.6318 16.6666 12C16.6666 12.3682 16.3682 12.6667 16 12.6667H12.6666V16C12.6666 16.3682 12.3682 16.6667 12 16.6667C11.6318 16.6667 11.3333 16.3682 11.3333 16V12.6667H7.99998C7.63179 12.6667 7.33331 12.3682 7.33331 12C7.33331 11.6318 7.63179 11.3333 7.99998 11.3333H11.3333V8C11.3333 7.63181 11.6318 7.33333 12 7.33333Z" fill="#08090A"/>
</svg>
